<?xml version="1.0" standalone="no"?>
<!DOCTYPE svg PUBLIC "-//W3C//DTD SVG 1.1//EN" "http://www.w3.org/Graphics/SVG/1.1/DTD/svg11.dtd" >
<svg xmlns="http://www.w3.org/2000/svg">
<metadata>
This is a custom SVG webfont generated by Font Squirrel.
Copyright   : DTP LTD T
</metadata>
<defs>
<font id="GillSansLight" horiz-adv-x="1958" >
<font-face units-per-em="4096" ascent="3276" descent="-820" />
<missing-glyph horiz-adv-x="1401" />
<glyph unicode=" "  horiz-adv-x="1401" />
<glyph unicode="&#x09;" horiz-adv-x="1401" />
<glyph unicode="&#xa0;" horiz-adv-x="1401" />
<glyph unicode="!" horiz-adv-x="1081" d="M287 2032q0 548 205 548q213 0 213 -548q0 -239 -25 -394l-90 -647q-19 -130 -38 -183.5t-60 -53.5q-55 0 -91 237l-90 647q-24 148 -24 394zM500 418q93 0 161 -65t68 -156q0 -92 -68 -157t-161 -65q-92 0 -156.5 65.5t-64.5 156.5q0 90 64.5 155.5t156.5 65.5z" />
<glyph unicode="&#x22;" horiz-adv-x="1401" d="M893 1737l-82 499v443h328v-443l-90 -499h-156zM254 1737l-82 499v443h328v-443l-90 -499h-156z" />
<glyph unicode="#" horiz-adv-x="2277" d="M737 2310h271l-156 -729h721l164 729h262l-156 -729h344v-262h-393l-139 -631h532v-254h-581l-148 -729h-270l147 729h-721l-147 -729h-270l147 729h-336v254h393l131 631h-524v262h574zM803 1319l-139 -631h729l131 631h-721z" />
<glyph unicode="$" horiz-adv-x="2122" d="M1761 2236v-409q-94 96 -249.5 177t-307.5 118v-738q212 -57 365 -162t234 -249t81 -309q0 -240 -179 -447t-501 -242v-409h-303v409q-294 20 -704 254v459q189 -169 328.5 -246.5t375.5 -130.5v803q-343 88 -519.5 269t-176.5 386q0 179 83.5 323t240 236.5t372.5 120.5 v131h303v-131q134 -13 296 -74t261 -139zM901 1483v639q-148 -18 -242 -102.5t-94 -200.5q0 -220 336 -336zM1204 983v-664q320 64 320 320q0 219 -320 344z" />
<glyph unicode="%" horiz-adv-x="2597" d="M1860 836q-123 0 -209 -86t-86 -209t86 -209t209 -86q122 0 208 86t86 209t-86 209t-208 86zM1860 1114q149 0 279 -78t208 -210.5t78 -284.5q0 -153 -78 -286t-208 -210.5t-279 -77.5q-153 0 -285.5 78t-210.5 210.5t-78 285.5q0 152 78 284.5t210.5 210.5t285.5 78z M2236 2580l-1228 -1900l-451 -713h-278l1212 1909l459 704h286zM647 2580q152 0 284.5 -78t211 -210.5t78.5 -284.5q0 -151 -78 -281.5t-211 -207t-285 -76.5t-285 76.5t-210.5 207t-77.5 281.5q0 152 78 284.5t210.5 210.5t284.5 78zM647 2310q-122 0 -208.5 -89.5 t-86.5 -213.5q0 -122 85.5 -204.5t209.5 -82.5q128 0 211.5 81.5t83.5 205.5q0 125 -84 214t-211 89z" />
<glyph unicode="&#x26;" horiz-adv-x="2441" d="M1851 1270h369q-94 -292 -410 -664l508 -598h-467l-286 344q-432 -377 -811 -377q-174 0 -321.5 80t-232.5 217t-85 301q0 150 73.5 283t206 248t318.5 223q-125 132 -206 287t-81 303q0 174 80 306.5t226 204t341 71.5q178 0 318 -72t218.5 -198t78.5 -279 q0 -187 -108 -348.5t-351 -331.5l352 -410q79 79 156 197.5t114 212.5zM1335 606l-417 475q-235 -152 -335 -258t-100 -250q0 -104 94.5 -183t217.5 -79q231 0 540 295zM786 1950q0 -206 230 -434q195 121 265.5 214.5t70.5 202.5q0 111 -81.5 186.5t-205.5 75.5 q-123 0 -201 -70t-78 -175z" />
<glyph unicode="'" horiz-adv-x="926" d="M229 1663v74q148 118 148 319v82q-92 12 -144.5 71t-52.5 150q0 106 62 163.5t159 57.5q114 0 180 -97.5t66 -246.5q0 -206 -109.5 -359.5t-308.5 -213.5z" />
<glyph unicode="(" horiz-adv-x="1245" d="M598 877q0 -1005 541 -1729h-197q-170 168 -302.5 368t-226.5 426t-143 462.5t-49 472.5q0 233 49 467.5t143 460.5t226.5 425.5t302.5 366.5h197q-541 -724 -541 -1720z" />
<glyph unicode=")" horiz-adv-x="1245" d="M565 877q0 995 -540 1720h196q167 -166 301 -369t227 -423.5t143 -457.5t50 -470q0 -310 -88 -627t-250.5 -599.5t-382.5 -502.5h-196q540 724 540 1729z" />
<glyph unicode="*" horiz-adv-x="1638" d="M655 1917l-475 164q-139 59 -139 155v0q1 0 25 66q22 57 90 57q62 0 155 -57l369 -328q29 20 74 41l-99 484q0 8 -4 24t-4 25q0 66 35.5 119t103.5 53q115 0 115 -156v-65l-90 -484q49 -16 74 -41l368 320q97 57 148 57q76 0 98 -57q17 -53 17 -66q0 -102 -140 -147 l-467 -164v-82l467 -164q52 -13 96 -60t44 -95q0 -5 -17 -58q-22 -57 -98 -57q-83 0 -148 65l-368 320q-13 -6 -36 -19.5t-38 -21.5l90 -483v-66q0 -147 -123 -147q-65 0 -98 39t-33 100q0 11 4 36t4 38l90 483q-10 10 -35.5 27.5t-29.5 21.5l-377 -328q-83 -65 -147 -65 q-72 0 -99 65q-24 51 -24 58q0 44 46 89t101 66l475 164q0 4 -4 17t-4 16q0 4 4 21t4 20z" />
<glyph unicode="+" horiz-adv-x="2277" d="M942 2204h303v-721h737v-312h-737v-729h-303v729h-721v312h721v721z" />
<glyph unicode="," horiz-adv-x="926" d="M229 -434v74q64 41 102 128t38 175q0 73 -9 106q-79 0 -129.5 57t-50.5 148q0 92 61.5 152.5t159.5 60.5q122 0 192.5 -99.5t70.5 -261.5q0 -172 -113.5 -327t-321.5 -213z" />
<glyph unicode="-" horiz-adv-x="1245" d="M1032 999v-344h-901v344h901z" />
<glyph unicode="." horiz-adv-x="926" d="M410 418q97 0 163 -64t66 -157q0 -94 -66 -158t-163 -64q-87 0 -154.5 65.5t-67.5 156.5q0 90 67.5 155.5t154.5 65.5z" />
<glyph unicode="/" horiz-adv-x="1163" d="M41 -25l524 1909l205 696h262l-540 -1900l-189 -705h-262z" />
<glyph unicode="0" d="M1753 1278q0 -294 -58 -533.5t-167 -412t-259.5 -265t-334.5 -92.5t-334.5 92.5t-260 267t-167 415t-57.5 528.5t58 530t167 415.5t259.5 265t334.5 91.5q242 0 428.5 -161t288.5 -457.5t102 -683.5zM1393 1278q0 297 -55 513t-158.5 330.5t-245.5 114.5 q-214 0 -332.5 -253t-118.5 -705q0 -451 118.5 -705t332.5 -254q142 0 245.5 115t158.5 331.5t55 512.5z" />
<glyph unicode="1" d="M1122 2556v-2548h-368v2548h368z" />
<glyph unicode="2" horiz-adv-x="1761" d="M1622 352v-344h-1614v25q358 440 551 688t334 483q95 168 133.5 282t38.5 259q0 140 -55 251t-153 171.5t-218 60.5q-316 0 -573 -344v459q283 237 589 237q230 0 407.5 -98.5t274.5 -277.5t97 -410q0 -155 -44.5 -307.5t-138 -316.5t-241.5 -362t-363 -456h975z" />
<glyph unicode="3" d="M303 2130v352q207 98 492 98q222 0 391.5 -82t261.5 -233.5t92 -347.5q0 -210 -73.5 -338t-245.5 -227q180 -58 270 -225t90 -382q0 -221 -103.5 -397t-286 -274.5t-413.5 -98.5q-268 0 -540 148v393q295 -197 573 -197q121 0 214.5 51t144.5 144.5t51 214.5t-57.5 218 t-169.5 152.5t-265 55.5h-57v328q246 0 372.5 100.5t126.5 276.5q0 172 -118.5 274t-315.5 102q-201 0 -434 -106z" />
<glyph unicode="4" d="M1483 2580v-1409h270v-327h-270v-836h-361v836h-1081v164l1286 1572h156zM1114 1901l-582 -730h590v730h-8z" />
<glyph unicode="5" d="M1507 2556v-328h-794v-647h73q256 0 450 -103.5t298 -285t104 -406.5q0 -230 -107.5 -415.5t-299 -290.5t-428.5 -105q-171 0 -314 36t-301 120v377q278 -189 549 -189q146 0 268 63t193.5 168.5t71.5 227.5q0 133 -74 241t-213 171t-328 63q-119 0 -278 -24v1327h1130z " />
<glyph unicode="6" d="M1180 2580l221 -270q-131 -79 -254 -185.5t-228 -231t-181 -256t-115 -261.5q104 49 194 78t207 29q196 0 360.5 -99t258.5 -269.5t94 -377.5q0 -204 -102.5 -380t-276.5 -279t-375 -103q-242 0 -428.5 112.5t-288.5 318t-102 471.5q0 237 67 474.5t196 456t320.5 416.5 t432.5 356zM549 991q-4 -31 -14.5 -87t-10.5 -85q0 -150 61 -263.5t163.5 -175t218.5 -61.5q180 0 290.5 114.5t110.5 303.5q0 171 -119 282t-299 111q-116 0 -202 -30.5t-199 -108.5z" />
<glyph unicode="7" d="M1827 2556l-844 -1909l-311 -672l-320 140l852 1908l82 181h-1106v352h1647z" />
<glyph unicode="8" d="M1745 696q0 -201 -104.5 -366.5t-288.5 -260t-410 -94.5t-413.5 96t-296.5 262.5t-109 362.5q0 398 360 615q-144 101 -223.5 241.5t-79.5 298.5q0 205 102 372.5t280 262t396 94.5q215 0 386.5 -95t269.5 -264t98 -378q0 -148 -82.5 -289.5t-236.5 -242.5 q173 -95 262.5 -257.5t89.5 -357.5zM1343 1851q0 166 -111 275.5t-282 109.5q-179 0 -290 -102.5t-111 -273.5q0 -99 53.5 -189t144.5 -143t195 -53q107 0 200 52.5t147 140.5t54 183zM1384 729q0 113 -57 204.5t-159 144t-226 52.5q-207 0 -333 -111t-126 -290 q0 -183 126.5 -296.5t324.5 -113.5q212 0 331 118t119 292z" />
<glyph unicode="9" d="M696 -25l-221 263q215 145 375.5 305t261 326.5t133.5 326.5q-170 -106 -393 -106q-195 0 -359.5 98t-259 267.5t-94.5 371.5q0 195 96.5 368.5t273.5 279t400 105.5q234 0 419.5 -120t288.5 -331.5t103 -473.5q0 -303 -131 -624.5t-366 -600.5t-527 -455zM500 1835 q0 -107 59 -200.5t159.5 -147t215.5 -53.5q183 0 385 139q24 90 24 205q0 186 -124 322t-301 136q-184 0 -301 -111.5t-117 -289.5z" />
<glyph unicode=":" horiz-adv-x="926" d="M410 1720q98 0 163.5 -67.5t65.5 -161.5t-66 -157.5t-163 -63.5q-87 0 -154.5 65t-67.5 156t67 160t155 69zM410 418q97 0 163 -64t66 -157q0 -94 -66 -158t-163 -64q-87 0 -154.5 65.5t-67.5 156.5q0 90 67.5 155.5t154.5 65.5z" />
<glyph unicode=";" horiz-adv-x="926" d="M229 -418v66q156 126 156 327v74q-94 14 -145.5 72.5t-51.5 148.5q0 107 62 164.5t160 57.5q113 0 179 -98t66 -247q0 -210 -109.5 -357t-316.5 -208zM639 1491q0 -94 -66 -157.5t-163 -63.5q-87 0 -154.5 65t-67.5 156t67 160t155 69q98 0 163.5 -67.5t65.5 -161.5z" />
<glyph unicode="&#x3c;" horiz-adv-x="2277" d="M213 1171v312l1769 753v-327l-1409 -582l1409 -582v-327z" />
<glyph unicode="=" horiz-adv-x="2277" d="M221 1884h1761v-311h-1761v311zM221 1065h1761v-303h-1761v303z" />
<glyph unicode="&#x3e;" horiz-adv-x="2277" d="M1982 1171l-1769 -753v327l1401 582l-1401 582v327l1769 -753v-312z" />
<glyph unicode="?" horiz-adv-x="1319" d="M303 2228l172 352h8q291 0 440.5 -167t149.5 -365q0 -178 -74 -347.5t-223.5 -402.5t-212.5 -353t-63 -240q0 -9 4 -25t4 -25q-116 61 -164.5 140.5t-48.5 203.5q0 135 55 254t158.5 274t154 257t50.5 215q0 115 -67.5 180.5t-178.5 65.5q-94 0 -164 -17zM565 418 q93 0 161.5 -65.5t68.5 -155.5q0 -91 -68.5 -156.5t-161.5 -65.5q-92 0 -156.5 65.5t-64.5 156.5q0 90 64.5 155.5t156.5 65.5z" />
<glyph unicode="@" horiz-adv-x="3875" d="M3334 41h336q-119 -201 -280.5 -354t-359 -255t-442 -156t-524.5 -54q-428 0 -771.5 112.5t-583 326.5t-364 517t-124.5 682q0 318 101 644t318 604.5t562.5 449t812.5 170.5q338 0 625.5 -104.5t499 -296.5t326 -452t114.5 -564q0 -245 -89.5 -480t-245.5 -423.5 t-354 -298t-401 -109.5q-360 0 -360 311q-123 -147 -269 -225t-288 -78q-185 0 -337.5 105.5t-239.5 293.5t-87 420q0 213 80 421.5t217.5 375.5t308 262.5t345.5 95.5q342 0 548 -335l66 278h328l-312 -1401q0 -11 -4 -40t-4 -42q0 -63 34.5 -101t96.5 -38q63 0 178.5 67 t235.5 196t201.5 319t81.5 426q0 326 -170 590.5t-470 414.5t-671 150q-320 0 -598.5 -117t-485 -331.5t-319.5 -503.5t-113 -621q0 -328 105.5 -589t309 -442t499 -275.5t667.5 -94.5q302 0 551 70.5t429.5 195t289.5 283.5zM1245 803q0 -239 113 -386t297 -147 q158 0 309.5 133.5t244.5 346.5t93 438q0 158 -51.5 279t-145.5 187t-221 66q-155 0 -304.5 -132t-242 -345t-92.5 -440z" />
<glyph unicode="A" horiz-adv-x="2638" d="M1368 2572l844 -1917l287 -647h-369l-336 746h-1081l-320 -746h-377l811 1901l279 663h262zM1237 2007l-385 -926h795z" />
<glyph unicode="B" horiz-adv-x="1884" d="M8 8v2548h737q264 0 442 -92t261.5 -241.5t83.5 -321.5q0 -385 -385 -541v-8q189 -38 325 -128.5t208.5 -227.5t72.5 -308q0 -169 -88.5 -324.5t-285 -255.5t-494.5 -100h-877zM377 2228v-762h246q532 0 532 402q0 360 -442 360h-336zM377 1139v-803h459q292 0 420 117 t128 284q0 186 -142.5 294t-422.5 108h-442z" />
<glyph unicode="C" horiz-adv-x="2441" d="M2302 2376v-385q-459 254 -885 254q-217 0 -403 -72t-324 -204t-213.5 -308t-75.5 -383q0 -213 74 -390.5t212 -307t329 -199.5t418 -70q460 0 884 287v-401q-204 -109 -419.5 -165.5t-497.5 -56.5q-340 0 -599.5 116.5t-430 307.5t-254.5 411.5t-84 426.5 q0 289 102.5 535.5t290.5 428.5t443 280.5t556 98.5q203 0 409.5 -47t467.5 -157z" />
<glyph unicode="D" horiz-adv-x="2482" d="M25 8v2548h983q445 0 752.5 -185.5t457 -479t149.5 -613.5q0 -245 -93.5 -472.5t-272.5 -408.5t-429.5 -285t-555.5 -104h-991zM393 2228v-1892h582q378 0 606 158t319 375t91 409q0 267 -114.5 482t-349.5 341.5t-577 126.5h-557z" />
<glyph unicode="E" horiz-adv-x="1638" d="M1483 2556v-328h-1082v-770h1049v-328h-1049v-794h1115v-328h-1475v2548h1442z" />
<glyph unicode="F" horiz-adv-x="1524" d="M1384 2556v-328h-991v-712h991v-328h-991v-1180h-368v2548h1359z" />
<glyph unicode="G" horiz-adv-x="2482" d="M2343 1262v-1082q-258 -112 -480 -158.5t-487 -46.5q-382 0 -692 166t-484.5 460t-174.5 661q0 369 178.5 671.5t492.5 474.5t697 172q232 0 425.5 -44t475.5 -169v-368q-454 246 -910 246q-273 0 -499 -127t-355 -349t-129 -491q0 -210 74.5 -387.5t211 -307.5t325 -201 t413.5 -71q263 0 557 99v524h-491v328h852z" />
<glyph unicode="H" horiz-adv-x="2277" d="M2171 2556v-2548h-361v1106h-1425v-1106h-369v2548h369v-1114h1425v1114h361z" />
<glyph unicode="I" horiz-adv-x="524" d="M401 2556v-2548h-368v2548h368z" />
<glyph unicode="J" horiz-adv-x="1040" d="M918 2556v-2581q0 -377 -168 -602t-529 -225q-26 0 -61 4t-54 4l-65 344h98q182 0 272.5 61.5t118 183.5t27.5 337v2474h361z" />
<glyph unicode="K" horiz-adv-x="2318" d="M811 1343l1376 -1335h-499l-1295 1254v-1254h-368v2548h368v-1163l1073 1163h451z" />
<glyph unicode="L" horiz-adv-x="1679" d="M385 2556v-2220h1147v-328h-1516v2548h369z" />
<glyph unicode="M" horiz-adv-x="2523" d="M2408 2556v-2548h-368v1983h-8l-787 -992h-57l-787 992v-1983h-368v2548h344l844 -1049l852 1049h335z" />
<glyph unicode="N" horiz-adv-x="2523" d="M2400 2556v-2548h-319l-1655 1901l-41 57v-1958h-344v2548h287l1663 -1909l65 -65v1974h344z" />
<glyph unicode="O" horiz-adv-x="2875" d="M8 1278q0 267 98.5 504t280.5 416.5t436.5 280.5t552.5 101q308 0 564 -100.5t435.5 -281t274 -417t94.5 -503.5q0 -258 -93.5 -495.5t-273.5 -419.5t-437 -285t-572 -103q-300 0 -551.5 103t-434 287t-278.5 419.5t-96 493.5zM393 1278q0 -270 128 -491.5t352.5 -348.5 t502.5 -127q282 0 508.5 126.5t354.5 348.5t128 492q0 274 -127.5 495.5t-354 346.5t-509.5 125q-278 0 -503 -125t-352.5 -346.5t-127.5 -495.5z" />
<glyph unicode="P" horiz-adv-x="1761" d="M8 2556h795q267 0 450.5 -96.5t272 -263.5t88.5 -377q0 -317 -218 -515t-642 -198h-377v-1098h-369v2548zM377 2228v-794h409q210 0 330.5 106t120.5 295q0 165 -101 279t-333 114h-426z" />
<glyph unicode="Q" horiz-adv-x="2875" d="M1696 8q167 -73 295.5 -119.5t234.5 -70t199 -23.5q68 0 221 33l8 -16l-327 -320q-233 16 -450.5 86t-412 178.5t-391.5 251.5q-306 61 -549.5 242t-379.5 450t-136 578q0 283 102 524t290 415t446.5 268.5t562.5 94.5q283 0 529.5 -98.5t429.5 -277t284 -417.5t101 -517 q0 -225 -78 -435.5t-220.5 -380t-337.5 -285t-421 -161.5zM1401 2245q-270 0 -466.5 -92t-315 -239t-172.5 -315t-54 -321q0 -196 63.5 -370.5t192 -309.5t317.5 -211t435 -76q279 0 501.5 128.5t348 348.5t125.5 482q0 271 -125.5 494.5t-349.5 352t-500 128.5z" />
<glyph unicode="R" horiz-adv-x="2122" d="M8 2556h639q254 0 444 -88t291 -250.5t101 -382.5q0 -217 -108.5 -379t-309.5 -235q154 -105 265 -255t300 -458q121 -195 352 -500h-442l-336 524q-232 363 -371.5 472.5t-300.5 109.5h-155v-1106h-369v2548zM377 2236v-794h237q268 0 384 117t116 292q-13 385 -500 385 h-237z" />
<glyph unicode="S" horiz-adv-x="1597" d="M1368 2408v-417q-274 262 -598 262q-175 0 -288 -80.5t-113 -214.5q0 -161 113.5 -249.5t405.5 -257t439.5 -340.5t147.5 -447q0 -197 -94.5 -354.5t-260 -246t-366.5 -88.5q-407 0 -705 238v459q279 -369 672 -369q192 0 300.5 100.5t108.5 219.5q0 176 -131 291.5 t-407 283.5t-417.5 320t-141.5 383q0 207 94.5 360.5t269.5 236t406 82.5q296 0 565 -172z" />
<glyph unicode="T" horiz-adv-x="2277" d="M2154 2556v-328h-876v-2220h-369v2220h-876v328h2121z" />
<glyph unicode="U" horiz-adv-x="2359" d="M2236 2556v-1548q0 -315 -127 -547.5t-383.5 -359t-627.5 -126.5q-277 0 -519 108.5t-390 335t-148 556.5v1581h360v-1507q0 -213 35 -321.5t129 -203.5q215 -213 541 -213q393 0 598 205q94 94 129 224.5t35 324.5v1491h368z" />
<glyph unicode="V" horiz-adv-x="2400" d="M2261 2556l-795 -1909l-286 -663h-74l-811 1908l-287 664h369l762 -1794l762 1794h360z" />
<glyph unicode="W" horiz-adv-x="4039" d="M3924 2556l-770 -1909l-262 -663h-74l-762 1908l-74 181l-770 -1917l-73 -172h-74l-754 1908l-270 664h360l705 -1753l704 1753h344l713 -1753l697 1753h360z" />
<glyph unicode="X" horiz-adv-x="2761" d="M2572 2556l-1007 -1237l1089 -1311h-442l-869 1057l-876 -1057h-442l1097 1311l-1024 1237h451l794 -975l795 975h434z" />
<glyph unicode="Y" horiz-adv-x="2400" d="M1130 1671l689 885h442l-942 -1204v-1344h-369v1344l-942 1204h443z" />
<glyph unicode="Z" horiz-adv-x="2441" d="M1655 2228h-1524v328h2187l-1384 -1909l-229 -311h1613v-328h-2285l1384 1901z" />
<glyph unicode="[" horiz-adv-x="1040" d="M901 2556v-303h-508v-2769h508v-303h-868v3375h868z" />
<glyph unicode="\" horiz-adv-x="1163" d="M1032 -25h-262l-541 1909l-188 696h262l524 -1900z" />
<glyph unicode="]" horiz-adv-x="999" d="M8 -819v303h508v2769h-508v303h869v-3375h-869z" />
<glyph unicode="^" horiz-adv-x="1720" d="M377 1090h-336l639 1466h270l639 -1466h-327l-443 1089z" />
<glyph unicode="_" horiz-adv-x="2081" d="M16 -270h1909v-189h-1909v189z" />
<glyph unicode="`" horiz-adv-x="639" d="M451 2580v-65q-91 -73 -123.5 -151t-32.5 -177q0 -11 4 -36t4 -37q86 -12 137.5 -69.5t51.5 -143.5q0 -113 -60.5 -175.5t-161.5 -62.5q-109 0 -177 101.5t-68 250.5q0 211 109.5 358.5t316.5 206.5z" />
<glyph unicode="a" horiz-adv-x="1597" d="M1475 311v-205q-126 -79 -187 -105t-133 -26q-219 0 -254 172q-222 -172 -450 -172q-180 0 -295 120t-115 290q0 155 79 255t192.5 154.5t293.5 114.5l295 107v90q0 158 -73 226.5t-230 68.5q-298 0 -532 -271v353q201 237 565 237q268 0 437 -140t169 -417v-860 q0 -48 14 -65t52 -17q70 0 172 90zM901 344v492q-180 -65 -283.5 -112t-172 -117t-68.5 -165q0 -98 67 -163.5t170 -65.5q156 0 287 131z" />
<glyph unicode="b" horiz-adv-x="1679" d="M352 2556v-991q221 155 467 155q204 0 369.5 -109t258.5 -300t93 -426q0 -210 -60.5 -378.5t-177 -288t-283 -181.5t-372.5 -62q-355 0 -631 123v2458h336zM352 1245v-909q194 -49 336 -49q145 0 261.5 70t181.5 193t65 277q0 269 -127 429.5t-332 160.5 q-113 0 -197.5 -37.5t-187.5 -134.5z" />
<glyph unicode="c" horiz-adv-x="1524" d="M1343 1597v-352q-235 164 -458 164q-149 0 -265 -71t-179.5 -200.5t-63.5 -293.5q0 -261 152.5 -409t412.5 -148q215 0 442 114v-335q-207 -91 -499 -91q-247 0 -441.5 107t-302.5 299.5t-108 437.5q0 272 101 476.5t288 314.5t438 110q140 0 245.5 -30t237.5 -93z" />
<glyph unicode="d" horiz-adv-x="1679" d="M1548 2556v-2548h-704q-185 0 -336 60.5t-257 175.5t-162 278.5t-56 362.5q0 238 106.5 429.5t297.5 298.5t431 107q131 0 353 -65v901h327zM1221 287v1065q-153 65 -320 65q-239 0 -385.5 -159t-146.5 -422q0 -549 516 -549h336z" />
<glyph unicode="e" horiz-adv-x="1679" d="M1524 492v-320q-163 -104 -316 -150.5t-356 -46.5q-251 0 -435.5 122.5t-280 328t-95.5 442.5q0 250 98 444t276 301t404 107q345 0 541 -236.5t196 -688.5h-1179q75 -500 557 -500q274 0 590 197zM385 1016h844q-12 191 -118.5 300t-283.5 109q-378 0 -442 -409z" />
<glyph unicode="f" horiz-adv-x="1245" d="M1098 2556v-328q-85 25 -148 25q-194 0 -277 -104.5t-83 -305.5v-164h311v-295h-311v-1376h-328v1376h-237v295h237v131q0 161 23.5 273t71 194t118.5 148q142 155 385 155q115 0 238 -24z" />
<glyph unicode="g" horiz-adv-x="1720" d="M1589 1679v-254h-344q103 -95 141.5 -174t38.5 -186q0 -104 -48 -212t-107 -173q-73 -78 -173 -112t-244 -58t-203.5 -50t-59.5 -91q0 -47 55 -83.5t153 -65t300 -73.5q483 -98 483 -466q0 -162 -92 -283t-271 -185.5t-423 -64.5q-338 0 -554 144t-216 364 q0 125 42.5 215t133.5 152t241 100q-163 93 -163 205q0 84 72.5 148.5t189.5 88.5v8q-197 93 -279 222q-90 129 -90 311q0 177 88 306.5t252 198t389 68.5h688zM1130 1098q0 124 -96.5 213.5t-230.5 89.5t-231 -94t-97 -217q0 -135 92.5 -219.5t243.5 -84.5q136 0 227.5 89 t91.5 223zM1262 -344q0 142 -172.5 206t-368.5 64q-172 0 -278.5 -71t-106.5 -183q0 -123 120.5 -188.5t346.5 -65.5q214 0 336.5 63.5t122.5 174.5z" />
<glyph unicode="h" horiz-adv-x="1565" d="M360 2556v-1090h9q95 119 226.5 186.5t272.5 67.5q256 0 411 -176.5t155 -511.5v-1024h-328v1041q0 185 -87 293t-241 108q-111 0 -205.5 -54t-212.5 -184v-1204h-335v2548h335z" />
<glyph unicode="i" horiz-adv-x="565" d="M385 1679v-1671h-336v1671h336zM410 2187q0 -78 -58 -137t-131 -59q-85 0 -145 58.5t-60 137.5q0 85 59 145t146 60q75 0 132 -60t57 -145z" />
<glyph unicode="j" horiz-adv-x="762" d="M614 1679v-1892q0 -257 -81 -403t-254 -236l-246 246q111 46 178.5 139.5t67.5 228.5v1917h335zM647 2187q0 -80 -59 -138t-137 -58q-85 0 -145 58.5t-60 137.5q0 85 59 145t146 60q81 0 138.5 -59.5t57.5 -145.5z" />
<glyph unicode="k" horiz-adv-x="1802" d="M1524 1679l-713 -819l860 -852h-442l-844 852l745 819h394zM369 2556v-2548h-328v2548h328z" />
<glyph unicode="l" horiz-adv-x="483" d="M344 2556v-2548h-336v2548h336z" />
<glyph unicode="m" horiz-adv-x="2597" d="M41 1679h336v-213q254 254 483 254q326 0 500 -311q279 311 557 311q170 0 298 -81.5t197.5 -229t69.5 -344.5v-1057h-336v1041q0 182 -97.5 283.5t-246.5 101.5h-16q-139 0 -361 -205v-1221h-335v1041q0 192 -82.5 288.5t-212.5 96.5q-133 0 -227 -45t-191 -160v-1221 h-336v1671z" />
<glyph unicode="n" horiz-adv-x="1565" d="M360 1679v-213h9q95 119 226.5 186.5t272.5 67.5q161 0 289 -76t202.5 -229t74.5 -375v-1032h-328v1041q0 185 -87 293t-241 108q-111 0 -205.5 -54t-212.5 -184v-1204h-335v1671h335z" />
<glyph unicode="o" d="M918 1720q260 0 468.5 -110t324.5 -307t116 -443q0 -262 -114.5 -463.5t-321.5 -311.5t-473 -110q-253 0 -454 113t-312 316t-111 456q0 236 114.5 434.5t317 312t445.5 113.5zM918 1417q-154 0 -278 -72.5t-193.5 -200t-69.5 -284.5q0 -263 151 -426.5t390 -163.5 q175 0 302.5 71t195 203t67.5 316q0 157 -73 284.5t-202 200t-290 72.5z" />
<glyph unicode="p" horiz-adv-x="1679" d="M344 49v-901h-336v2531h574q303 0 517 -97t323.5 -288t109.5 -467q0 -244 -110 -439t-305 -304t-437 -109q-138 0 -336 74zM344 1384v-1040q177 -74 311 -74q153 0 275 73t190 202t68 291q0 262 -137 405t-404 143h-303z" />
<glyph unicode="q" horiz-adv-x="1679" d="M1204 -852v885q-230 -58 -336 -58q-245 0 -439.5 109t-303.5 303.5t-109 439.5q0 177 73.5 370t275 337.5t553.5 144.5h614v-2531h-328zM1204 1384h-303q-139 0 -264.5 -59.5t-205 -184t-79.5 -304.5q0 -248 152.5 -415t388.5 -167q151 0 311 74v1056z" />
<glyph unicode="r" horiz-adv-x="1360" d="M8 1679h336v-376h8q239 417 484 417q193 0 401 -196l-172 -287q-195 164 -320 164q-109 0 -201 -69t-146 -188.5t-54 -258.5v-877h-336v1671z" />
<glyph unicode="s" horiz-adv-x="1278" d="M1065 1573v-328q-247 180 -483 180q-99 0 -160.5 -43.5t-61.5 -111.5q0 -54 93 -129.5t317 -206.5q211 -136 294 -237t83 -230q0 -145 -72 -256.5t-199.5 -173.5t-285.5 -62q-282 0 -582 156v352q332 -221 557 -221q103 6 174.5 57.5t71.5 139.5q0 74 -76 126.5 t-287 175.5t-317 235.5t-106 265.5q0 214 148 336t400 122q234 0 492 -147z" />
<glyph unicode="t" horiz-adv-x="1401" d="M647 2032v-353h533v-295h-533v-860q0 -132 77.5 -193t168.5 -61q168 0 377 131v-319q-88 -43 -207.5 -75t-194.5 -32q-266 0 -407.5 144t-141.5 381v884h-286v33z" />
<glyph unicode="u" horiz-adv-x="1565" d="M1425 8h-327v213q-105 -115 -240.5 -180.5t-259.5 -65.5q-256 0 -414.5 179t-158.5 493v1032h327v-1056q0 -178 90 -277.5t254 -99.5q226 0 402 237v1196h327v-1671z" />
<glyph unicode="v" horiz-adv-x="1761" d="M770 -25l-762 1704h369l442 -1032l443 1032h360l-737 -1704h-115z" />
<glyph unicode="w" horiz-adv-x="2843" d="M1499 1679l426 -1015l442 1015h353l-738 -1704h-106l-492 1172l-491 -1172h-107l-745 1704h352l434 -1015l426 1015h246z" />
<glyph unicode="x" horiz-adv-x="2040" d="M1851 1679l-688 -819l738 -852h-418l-533 598l-491 -598h-418l696 852l-696 819h418l491 -573l475 573h426z" />
<glyph unicode="y" horiz-adv-x="1802" d="M1671 1679l-893 -1908l-295 -623h-368l573 1221l-647 1310h369l458 -942l435 942h368z" />
<glyph unicode="z" horiz-adv-x="1638" d="M1507 1679l-893 -1368h893v-303h-1466l885 1376h-852v295h1433z" />
<glyph unicode="{" horiz-adv-x="1204" d="M16 819v303q215 0 296 151t81 464v327q0 334 120 499t405 165h147v-287h-57q-136 0 -200.5 -29.5t-88 -106.5t-23.5 -241v-270q0 -249 -36 -409t-118 -256t-223 -154q142 -62 223.5 -158.5t117.5 -256.5t36 -413v-262q0 -164 23.5 -240.5t88 -106.5t200.5 -30h57v-286 h-147q-286 0 -405.5 162.5t-119.5 500.5v336q0 306 -80.5 452t-296.5 146z" />
<glyph unicode="|" horiz-adv-x="442" d="M33 -926v3736h286v-3736h-286z" />
<glyph unicode="}" horiz-adv-x="1245" d="M1090 1122v-303q-148 0 -228 -68.5t-110.5 -197.5t-30.5 -332v-336q0 -224 -51.5 -369t-169 -219.5t-312.5 -74.5h-147v286h57q136 0 200 29.5t88 109t24 238.5v262q0 255 36.5 414t119 255t229.5 159q-146 58 -229 154t-119.5 255t-36.5 410v270q0 159 -24 239t-88 109 t-200 29h-57v287h147q194 0 311.5 -76t169.5 -222t52 -366v-327q0 -209 30.5 -341t110.5 -203t228 -71z" />
<glyph unicode="~" horiz-adv-x="2163" d="M16 745v312q297 237 557 237q183 0 476 -139q166 -79 257.5 -113t184.5 -34q208 0 524 254v-312q-280 -237 -540 -237q-105 0 -205.5 33.5t-270.5 105.5q-291 139 -450 139q-215 0 -533 -246z" />
<glyph horiz-adv-x="762" d="M393 2449l246 -548h-205l-418 548h377z" />
<glyph horiz-adv-x="1278" d="M1065 1573v-328q-247 180 -483 180q-99 0 -160.5 -43.5t-61.5 -111.5q0 -54 93 -129.5t317 -206.5q211 -136 294 -237t83 -230q0 -145 -72 -256.5t-199.5 -173.5t-285.5 -62q-282 0 -582 156v352q332 -221 557 -221q103 6 174.5 57.5t71.5 139.5q0 74 -76 126.5 t-287 175.5t-317 235.5t-106 265.5q0 214 148 336t400 122q234 0 492 -147zM696 -16l-16 -99q88 -18 142.5 -80.5t54.5 -148.5q0 -172 -121.5 -258t-321.5 -86q-20 0 -67 4t-72 4v213q21 0 60 -4t55 -4q196 0 196 98q0 40 -43 69t-121 29q-3 0 -21 -4t-28 -4l99 271h204z " />
<glyph horiz-adv-x="2482" d="M2343 1262v-1082q-258 -112 -480 -158.5t-487 -46.5q-382 0 -692 166t-484.5 460t-174.5 661q0 369 178.5 671.5t492.5 474.5t697 172q232 0 425.5 -44t475.5 -169v-368q-454 246 -910 246q-273 0 -499 -127t-355 -349t-129 -491q0 -210 74.5 -387.5t211 -307.5t325 -201 t413.5 -71q263 0 557 99v524h-491v328h852zM1884 3154q0 -117 -78 -211.5t-214 -146.5t-306 -52q-258 0 -428 116.5t-170 293.5h262q0 -116 92 -185t244 -69q154 0 245 69t91 185h262z" />
<glyph unicode="&#xa1;" horiz-adv-x="606" d="M262 -713q-205 0 -205 557q0 201 17 394l90 647q35 237 98 237q35 0 52.5 -51t37.5 -186l99 -647q24 -136 24 -394q0 -557 -213 -557zM254 1458q-87 0 -154 65.5t-67 155.5t67 156t154 66q97 0 163 -64t66 -158t-66 -157.5t-163 -63.5z" />
<glyph unicode="&#xa8;" horiz-adv-x="1204" d="M188 2351q76 0 124 -49t48 -123q0 -75 -49.5 -127.5t-122.5 -52.5q-72 0 -126 54t-54 126t52.5 122t127.5 50zM885 2351q74 0 123 -49t49 -123q0 -75 -50 -127.5t-122 -52.5t-126 53t-54 127q0 73 52.5 122.5t127.5 49.5z" />
<glyph unicode="&#xa9;" horiz-adv-x="2916" d="M1860 1130l221 -65q-55 -243 -233 -371.5t-447 -128.5q-212 0 -371.5 98.5t-246.5 281.5t-87 423q0 221 90 393t257.5 266.5t390.5 94.5q235 0 398 -113t224 -321l-221 -50q-114 279 -426 279q-138 0 -242.5 -72.5t-160.5 -206t-56 -311.5q0 -170 55.5 -294.5 t161.5 -189.5t250 -65q162 0 284 94.5t159 257.5zM2793 1352q0 -372 -185.5 -689t-505.5 -502.5t-693 -185.5t-688 184.5t-497.5 501.5t-182.5 691t183 691t497.5 501t687.5 184t692.5 -185t505.5 -502t186 -689zM2564 1352q0 312 -154.5 574t-420 413t-580.5 151 q-309 0 -571.5 -151t-415 -412.5t-152.5 -574.5q0 -309 152.5 -573.5t415.5 -419t571 -154.5q313 0 579 154.5t421 419.5t155 573z" />
<glyph unicode="&#xaa;" horiz-adv-x="1122" d="M983 1778v-156q-134 -90 -229 -90q-142 0 -181 90q-134 -90 -262 -90q-122 0 -204 76t-82 186q0 140 136 218t412 151q0 125 -29 169t-134 44q-164 0 -361 -197v262q126 139 377 139q177 0 289 -80t112 -247v-467q0 -82 25 -82q26 0 131 74zM573 1761v271 q-158 -56 -222 -97.5t-64 -115.5q0 -123 123 -123q77 0 163 65z" />
<glyph unicode="&#xab;" horiz-adv-x="1802" d="M1098 844l557 -836h-336l-549 836l549 844h336zM336 844l557 -836h-328l-549 836l549 844h328z" />
<glyph unicode="&#xac;" horiz-adv-x="1917" d="M1778 483h-303v787h-1467v303h1770v-1090z" />
<glyph unicode="&#xad;" horiz-adv-x="1245" d="M1032 999v-344h-901v344h901z" />
<glyph unicode="&#xae;" horiz-adv-x="2916" d="M819 590v1483h647q246 0 369 -125t123 -269q0 -117 -53.5 -211t-149 -150t-223.5 -65v-8q86 -28 165 -117.5t179 -250.5l180 -287h-295l-123 229q-93 169 -158.5 254.5t-127.5 116.5t-156 31h-139v-631h-238zM1057 1417h344q135 0 219 59t84 171q0 97 -76 159t-194 62 h-377v-451zM2564 1352q0 312 -154.5 574t-420 413t-580.5 151q-309 0 -571.5 -151t-415 -412.5t-152.5 -574.5q0 -309 152.5 -573.5t415.5 -419t571 -154.5q313 0 579 154.5t421 419.5t155 573zM2793 1352q0 -372 -185.5 -689t-505.5 -502.5t-693 -185.5t-688 184.5 t-497.5 501.5t-182.5 691t183 691t497.5 501t687.5 184t692.5 -185t505.5 -502t186 -689z" />
<glyph unicode="&#xaf;" horiz-adv-x="1843" />
<glyph unicode="&#xb0;" horiz-adv-x="844" d="M377 2580q141 0 246.5 -101.5t105.5 -242.5q0 -91 -49 -171t-129.5 -126.5t-173.5 -46.5q-141 0 -242.5 101.5t-101.5 242.5q0 142 102 243t242 101zM377 2441q-87 0 -146 -60t-59 -145q0 -80 60.5 -142t144.5 -62q78 0 141.5 62.5t63.5 141.5q0 85 -62 145t-143 60z" />
<glyph unicode="&#xb1;" horiz-adv-x="1917" d="M16 319h1762v-311h-1762v311zM737 2204h312v-721h729v-312h-729v-729h-312v729h-721v312h721v721z" />
<glyph unicode="&#xb2;" horiz-adv-x="1163" d="M1032 1450v-205h-991v25q329 343 476 539t147 345q0 99 -66.5 160.5t-171.5 61.5q-98 0 -194.5 -60t-165.5 -162v295q173 131 376 131q141 0 251 -52.5t171.5 -148t61.5 -216.5q0 -262 -451 -713h557z" />
<glyph unicode="&#xb3;" horiz-adv-x="999" d="M66 2318v205q114 57 311 57q140 0 243 -41.5t159.5 -120t56.5 -182.5q0 -202 -172 -294q98 -30 151 -110.5t53 -193.5q0 -117 -64.5 -210.5t-179 -146t-255.5 -52.5q-175 0 -336 82v237q182 -114 352 -114q99 0 156 52t57 144q0 197 -279 197h-32v196q8 0 24 -4t25 -4 q122 0 184 60.5t62 128.5q0 86 -63 137t-175 51q-111 0 -278 -74z" />
<glyph unicode="&#xb4;" horiz-adv-x="803" d="M303 2449h369l-418 -548h-205z" />
<glyph unicode="&#xb5;" horiz-adv-x="1597" d="M1450 1679v-1671h-303v197h-8q-67 -122 -159.5 -176t-234.5 -54q-237 0 -376 197h-9v-811h-335v2318h335v-925q0 -258 99 -391.5t270 -133.5q185 0 289 136.5t104 379.5v934h328z" />
<glyph unicode="&#xb6;" horiz-adv-x="2163" d="M745 -737v1900q-226 16 -393 113t-255.5 264t-88.5 385q0 239 100.5 409t294.5 257.5t465 87.5h1155v-295h-262v-3121h-311v3121h-401v-3121h-304z" />
<glyph unicode="&#xb8;" horiz-adv-x="721" d="M410 41l-17 -98q87 -18 142 -81t55 -149q0 -170 -121.5 -257t-321.5 -87q-20 0 -67 4t-72 4v213q21 0 60 -4t55 -4q85 0 140.5 25.5t55.5 73.5q0 40 -43 69t-120 29q-4 0 -22 -4t-28 -4l99 270h205z" />
<glyph unicode="&#xb9;" horiz-adv-x="401" d="M270 2572v-1327h-262v1327h262z" />
<glyph unicode="&#xba;" horiz-adv-x="1360" d="M1212 2064q0 -153 -78 -274.5t-213.5 -189.5t-306.5 -68q-258 0 -428 150.5t-170 381.5q0 221 170.5 368.5t427.5 147.5q171 0 306.5 -67t213.5 -185.5t78 -263.5zM950 2064q0 143 -91.5 231.5t-244.5 88.5q-152 0 -243.5 -88.5t-91.5 -231.5q0 -148 91.5 -237.5 t243.5 -89.5q153 0 244.5 89.5t91.5 237.5z" />
<glyph unicode="&#xbb;" horiz-adv-x="1802" d="M1327 844l-549 844h328l549 -844l-549 -836h-328zM573 844l-548 844h327l549 -844l-549 -836h-327z" />
<glyph unicode="&#xbc;" horiz-adv-x="2400" d="M2081 1352v-729h172v-189h-172v-426h-254v426h-631v98l770 820h115zM1827 934l-287 -311h287v311zM442 2572v-1327h-254v1327h254zM1974 2580l-1204 -1900l-491 -770h-254l1212 1909l492 761h245z" />
<glyph unicode="&#xbd;" horiz-adv-x="2597" d="M2449 213v-205h-999v25q325 331 474 531t149 345q0 106 -64 168t-174 62q-97 0 -190 -60t-162 -161v294q173 131 377 131q140 0 248.5 -52.5t167.5 -148t59 -216.5q0 -274 -451 -713h565zM1974 2580l-1204 -1900l-491 -770h-254l1212 1909l492 761h245zM442 2572v-1327 h-254v1327h254z" />
<glyph unicode="&#xbe;" horiz-adv-x="2638" d="M2236 2580l-1204 -1900l-491 -770h-254l1204 1909l500 761h245zM74 2318v205q123 57 319 57q205 0 332 -92.5t127 -251.5q0 -205 -180 -294q205 -60 205 -304q0 -115 -63 -209.5t-175 -147t-254 -52.5q-181 0 -344 82v237q182 -114 352 -114q99 0 156 52t57 144 q0 197 -287 197h-24v196q8 0 25 -4t24 -4q127 0 190.5 60t63.5 129q0 86 -63 137t-175 51q-119 0 -286 -74zM2343 1352v-729h172v-189h-172v-426h-254v426h-631v98l770 820h115zM2089 934l-287 -311h287v311z" />
<glyph unicode="&#xbf;" horiz-adv-x="483" d="M344 1679v-1671h-336v1671h336z" />
<glyph unicode="&#xc0;" horiz-adv-x="2638" d="M1368 2572l844 -1917l287 -647h-369l-336 746h-1081l-320 -746h-377l811 1901l279 663h262zM1237 2007l-385 -926h795zM1237 3269l246 -549h-205l-418 549h377z" />
<glyph unicode="&#xc1;" horiz-adv-x="2638" d="M1368 2572l844 -1917l287 -647h-369l-336 746h-1081l-320 -746h-377l811 1901l279 663h262zM1237 2007l-385 -926h795zM1303 3269h368l-418 -549h-196z" />
<glyph unicode="&#xc2;" horiz-adv-x="2638" d="M1368 2572l844 -1917l287 -647h-369l-336 746h-1081l-320 -746h-377l811 1901l279 663h262zM1237 2007l-385 -926h795zM1425 3277l353 -557h-205l-328 319l-303 -319h-205l344 557h344z" />
<glyph unicode="&#xc3;" horiz-adv-x="2638" d="M1368 2572l844 -1917l287 -647h-369l-336 746h-1081l-320 -746h-377l811 1901l279 663h262zM1237 2007l-385 -926h795zM1663 3228h147q0 -194 -86 -318.5t-217 -124.5q-98 0 -265.5 65.5t-250.5 65.5q-110 0 -123 -131h-155q37 434 286 434q104 0 296.5 -69.5 t236.5 -69.5q119 0 131 148z" />
<glyph unicode="&#xc4;" horiz-adv-x="2638" d="M1368 2572l844 -1917l287 -647h-369l-336 746h-1081l-320 -746h-377l811 1901l279 663h262zM1237 2007l-385 -926h795zM909 3170q76 0 124 -48t48 -124q0 -69 -49.5 -120.5t-122.5 -51.5q-66 0 -119 53t-53 119q0 73 51.5 122.5t120.5 49.5zM1606 3170q74 0 123 -48 t49 -124q0 -69 -50.5 -120.5t-121.5 -51.5t-121.5 51.5t-50.5 120.5q0 76 49 124t123 48z" />
<glyph unicode="&#xc5;" horiz-adv-x="2638" d="M1368 2572l844 -1917l287 -647h-369l-336 746h-1081l-320 -746h-377l811 1901l279 663h262zM1237 2007l-385 -926h795zM1262 3408q139 0 241.5 -104t102.5 -240q0 -146 -101.5 -249t-242.5 -103q-148 0 -250.5 102.5t-102.5 249.5q0 89 47 168t128.5 127.5t177.5 48.5z M1262 3260q-82 0 -143.5 -59t-61.5 -137q0 -85 62.5 -149t142.5 -64q84 0 144 62.5t60 150.5q0 81 -59.5 138.5t-144.5 57.5z" />
<glyph unicode="&#xc6;" horiz-adv-x="3359" d="M3195 2556v-328h-1041v-770h1008v-328h-1008v-794h1090v-328h-1458v1122h-713l-672 -1122h-368l1122 1901l385 647h1655zM1778 2327l-516 -869h524v869h-8z" />
<glyph unicode="&#xc7;" horiz-adv-x="2441" d="M2318 598v-401q-143 -76 -272 -122t-305 -73t-414 -27l-8 -49q197 -70 197 -245q0 -160 -121 -244t-314 -84h-147v205h98q94 0 153.5 27.5t59.5 70.5q0 40 -47 73t-125 33q-3 0 -17 -4t-24 -4l90 246q-353 61 -600.5 260.5t-368 462t-120.5 514.5q0 289 102.5 535.5 t290.5 428.5t443 280.5t556 98.5q203 0 409.5 -47t467.5 -157v-385q-459 254 -885 254q-217 0 -403 -72t-324 -204t-213.5 -308t-75.5 -383q0 -213 74 -390.5t212 -307t329 -199.5t418 -70q460 0 884 287z" />
<glyph unicode="&#xc8;" horiz-adv-x="1638" d="M1483 2556v-328h-1082v-770h1049v-328h-1049v-794h1115v-328h-1475v2548h1442zM672 3269l246 -549h-197l-418 549h369z" />
<glyph unicode="&#xc9;" horiz-adv-x="1638" d="M1483 2556v-328h-1082v-770h1049v-328h-1049v-794h1115v-328h-1475v2548h1442zM737 3269h377l-418 -549h-213z" />
<glyph unicode="&#xca;" horiz-adv-x="1638" d="M1483 2556v-328h-1082v-770h1049v-328h-1049v-794h1115v-328h-1475v2548h1442zM868 3277l353 -557h-213l-320 319l-311 -319h-197l336 557h352z" />
<glyph unicode="&#xcb;" horiz-adv-x="1638" d="M1483 2556v-328h-1082v-770h1049v-328h-1049v-794h1115v-328h-1475v2548h1442zM352 3170q76 0 124 -48t48 -124q0 -69 -49.5 -120.5t-122.5 -51.5q-72 0 -126 52.5t-54 119.5q0 73 52.5 122.5t127.5 49.5zM1049 3170q74 0 123 -48t49 -124q0 -69 -50.5 -120.5 t-121.5 -51.5q-73 0 -127 52.5t-54 119.5q0 73 52.5 122.5t128.5 49.5z" />
<glyph unicode="&#xcc;" horiz-adv-x="762" d="M598 2556v-2548h-369v2548h369zM393 3269l254 -549h-213l-418 549h377z" />
<glyph unicode="&#xcd;" horiz-adv-x="762" d="M401 2556v-2548h-368v2548h368zM254 3269h377l-418 -549h-205z" />
<glyph unicode="&#xce;" horiz-adv-x="1204" d="M721 2556v-2548h-369v2548h369zM705 3277l352 -557h-205l-328 319l-303 -319h-196l335 557h345z" />
<glyph unicode="&#xcf;" horiz-adv-x="1204" d="M721 2556v-2548h-369v2548h369zM188 3170q76 0 124 -48t48 -124q0 -69 -49.5 -120.5t-122.5 -51.5q-71 0 -121.5 52t-50.5 120q0 74 49 123t123 49zM885 3170q74 0 123 -48t49 -124q0 -69 -50.5 -120.5t-121.5 -51.5t-121.5 51.5t-50.5 120.5q0 76 49 124t123 48z" />
<glyph unicode="&#xd0;" horiz-adv-x="2482" d="M2343 1262v-1082q-258 -112 -480 -158.5t-487 -46.5q-382 0 -692 166t-484.5 460t-174.5 661q0 369 178.5 671.5t492.5 474.5t697 172q232 0 425.5 -44t475.5 -169v-368q-454 246 -910 246q-273 0 -499 -127t-355 -349t-129 -491q0 -210 74.5 -387.5t211 -307.5t325 -201 t413.5 -71q263 0 557 99v524h-491v328h852zM1884 3154q0 -117 -78 -211.5t-214 -146.5t-306 -52q-258 0 -428 116.5t-170 293.5h262q0 -116 92 -185t244 -69q154 0 245 69t91 185h262z" />
<glyph unicode="&#xd1;" horiz-adv-x="2523" d="M2400 2556v-2548h-319l-1655 1901l-41 57v-1958h-344v2548h287l1663 -1909l65 -65v1974h344zM1622 3228h139q0 -198 -78.5 -320.5t-207.5 -122.5q-108 0 -273.5 65.5t-251.5 65.5q-106 0 -131 -131h-147q12 208 89 321t206 113q105 0 293.5 -69.5t222.5 -69.5 q115 0 139 148z" />
<glyph unicode="&#xd2;" horiz-adv-x="2875" d="M8 1278q0 267 98.5 504t280.5 416.5t436.5 280.5t552.5 101q308 0 564 -100.5t435.5 -281t274 -417t94.5 -503.5q0 -258 -93.5 -495.5t-273.5 -419.5t-437 -285t-572 -103q-300 0 -551.5 103t-434 287t-278.5 419.5t-96 493.5zM393 1278q0 -270 128 -491.5t352.5 -348.5 t502.5 -127q282 0 508.5 126.5t354.5 348.5t128 492q0 274 -127.5 495.5t-354 346.5t-509.5 125q-278 0 -503 -125t-352.5 -346.5t-127.5 -495.5zM1352 3269l254 -549h-205l-418 549h369z" />
<glyph unicode="&#xd3;" horiz-adv-x="2875" d="M8 1278q0 267 98.5 504t280.5 416.5t436.5 280.5t552.5 101q308 0 564 -100.5t435.5 -281t274 -417t94.5 -503.5q0 -258 -93.5 -495.5t-273.5 -419.5t-437 -285t-572 -103q-300 0 -551.5 103t-434 287t-278.5 419.5t-96 493.5zM393 1278q0 -270 128 -491.5t352.5 -348.5 t502.5 -127q282 0 508.5 126.5t354.5 348.5t128 492q0 274 -127.5 495.5t-354 346.5t-509.5 125q-278 0 -503 -125t-352.5 -346.5t-127.5 -495.5zM1417 3269h377l-418 -549h-205z" />
<glyph unicode="&#xd4;" horiz-adv-x="2875" d="M8 1278q0 267 98.5 504t280.5 416.5t436.5 280.5t552.5 101q308 0 564 -100.5t435.5 -281t274 -417t94.5 -503.5q0 -258 -93.5 -495.5t-273.5 -419.5t-437 -285t-572 -103q-300 0 -551.5 103t-434 287t-278.5 419.5t-96 493.5zM393 1278q0 -270 128 -491.5t352.5 -348.5 t502.5 -127q282 0 508.5 126.5t354.5 348.5t128 492q0 274 -127.5 495.5t-354 346.5t-509.5 125q-278 0 -503 -125t-352.5 -346.5t-127.5 -495.5zM1548 3277l353 -557h-205l-328 319l-303 -319h-205l344 557h344z" />
<glyph unicode="&#xd5;" horiz-adv-x="2875" d="M8 1278q0 267 98.5 504t280.5 416.5t436.5 280.5t552.5 101q308 0 564 -100.5t435.5 -281t274 -417t94.5 -503.5q0 -258 -93.5 -495.5t-273.5 -419.5t-437 -285t-572 -103q-300 0 -551.5 103t-434 287t-278.5 419.5t-96 493.5zM393 1278q0 -270 128 -491.5t352.5 -348.5 t502.5 -127q282 0 508.5 126.5t354.5 348.5t128 492q0 274 -127.5 495.5t-354 346.5t-509.5 125q-278 0 -503 -125t-352.5 -346.5t-127.5 -495.5zM1786 3228h139q0 -195 -82.5 -319t-212.5 -124q-103 0 -268.5 65.5t-247.5 65.5q-119 0 -131 -131h-156q39 434 295 434 q104 0 296.5 -69.5t236.5 -69.5q106 0 131 148z" />
<glyph unicode="&#xd6;" horiz-adv-x="2875" d="M8 1278q0 267 98.5 504t280.5 416.5t436.5 280.5t552.5 101q308 0 564 -100.5t435.5 -281t274 -417t94.5 -503.5q0 -258 -93.5 -495.5t-273.5 -419.5t-437 -285t-572 -103q-300 0 -551.5 103t-434 287t-278.5 419.5t-96 493.5zM393 1278q0 -270 128 -491.5t352.5 -348.5 t502.5 -127q282 0 508.5 126.5t354.5 348.5t128 492q0 274 -127.5 495.5t-354 346.5t-509.5 125q-278 0 -503 -125t-352.5 -346.5t-127.5 -495.5zM1032 3170q74 0 123 -48t49 -124q0 -69 -50.5 -120.5t-121.5 -51.5t-121.5 52t-50.5 120q0 74 49 123t123 49zM1729 3170 q69 0 120.5 -49t51.5 -123q0 -68 -53 -120t-119 -52q-72 0 -122.5 52t-50.5 120q0 74 49 123t124 49z" />
<glyph unicode="&#xd7;" horiz-adv-x="3318" d="M3129 2556v-328h-1040v-770h999v-328h-999v-794h1081v-328h-1654q-308 0 -577 88t-472 257.5t-314.5 405t-111.5 519.5q0 280 105.5 516.5t297.5 407t458.5 262.5t580.5 92h1646zM1729 319v1917h-222q-262 0 -467 -77.5t-343.5 -213t-208.5 -307.5t-70 -360 q0 -265 139.5 -485.5t382 -347t535.5 -126.5h254z" />
<glyph unicode="&#xd8;" horiz-adv-x="2875" d="M647 606l1278 1491q-248 148 -549 148q-278 0 -503 -125t-352.5 -346.5t-127.5 -495.5q0 -379 254 -672zM582 197l-181 -205l-172 123l181 213q-128 128 -218 277t-137 318t-47 355q0 267 98.5 504t280.5 416.5t436.5 280.5t552.5 101q454 0 778 -204l189 213l172 -148 l-180 -205q193 -174 301 -430t108 -528q0 -258 -93.5 -495.5t-273.5 -419.5t-437 -285t-572 -103q-442 0 -786 222zM2097 1958l-1278 -1483q261 -164 557 -164q282 0 508.5 126.5t354.5 348.5t128 492q0 410 -270 680z" />
<glyph unicode="&#xd9;" horiz-adv-x="2359" d="M2236 2556v-1548q0 -315 -127 -547.5t-383.5 -359t-627.5 -126.5q-277 0 -519 108.5t-390 335t-148 556.5v1581h360v-1507q0 -213 35 -321.5t129 -203.5q215 -213 541 -213q393 0 598 205q94 94 129 224.5t35 324.5v1491h368zM1114 3269l246 -549h-205l-418 549h377z" />
<glyph unicode="&#xda;" horiz-adv-x="2359" d="M2236 2556v-1548q0 -315 -127 -547.5t-383.5 -359t-627.5 -126.5q-277 0 -519 108.5t-390 335t-148 556.5v1581h360v-1507q0 -213 35 -321.5t129 -203.5q215 -213 541 -213q393 0 598 205q94 94 129 224.5t35 324.5v1491h368zM1180 3269h376l-417 -549h-213z" />
<glyph unicode="&#xdb;" horiz-adv-x="2359" d="M2236 2556v-1548q0 -315 -127 -547.5t-383.5 -359t-627.5 -126.5q-277 0 -519 108.5t-390 335t-148 556.5v1581h360v-1507q0 -213 35 -321.5t129 -203.5q215 -213 541 -213q393 0 598 205q94 94 129 224.5t35 324.5v1491h368zM1311 3277l344 -557h-205l-320 319 l-311 -319h-196l335 557h353z" />
<glyph unicode="&#xdc;" horiz-adv-x="2359" d="M2236 2556v-1548q0 -315 -127 -547.5t-383.5 -359t-627.5 -126.5q-277 0 -519 108.5t-390 335t-148 556.5v1581h360v-1507q0 -213 35 -321.5t129 -203.5q215 -213 541 -213q393 0 598 205q94 94 129 224.5t35 324.5v1491h368zM795 3170q74 0 123 -48t49 -124 q0 -69 -50.5 -120.5t-121.5 -51.5q-73 0 -127 52.5t-54 119.5q0 73 52.5 122.5t128.5 49.5zM1483 3170q74 0 123 -48t49 -124q0 -69 -50.5 -120.5t-121.5 -51.5q-66 0 -119 53t-53 119q0 73 51.5 122.5t120.5 49.5z" />
<glyph unicode="&#xdd;" horiz-adv-x="524" d="M401 2556v-2548h-368v2548h368zM393 2957q0 -79 -57.5 -137.5t-130.5 -58.5q-85 0 -145 58.5t-60 137.5q0 85 59 145t146 60q75 0 131.5 -59.5t56.5 -145.5z" />
<glyph unicode="&#xde;" horiz-adv-x="1597" d="M1368 2408v-417q-274 262 -598 262q-175 0 -288 -80.5t-113 -214.5q0 -161 113.5 -249.5t405.5 -257t439.5 -340.5t147.5 -447q0 -197 -94.5 -354.5t-260 -246t-366.5 -88.5q-407 0 -705 238v459q279 -369 672 -369q192 0 300.5 100.5t108.5 219.5q0 176 -131 291.5 t-407 283.5t-417.5 320t-141.5 383q0 207 94.5 360.5t269.5 236t406 82.5q296 0 565 -172zM860 -25l-16 -98q86 -18 141 -81t55 -148q0 -172 -121 -258t-321 -86q-20 0 -67 4t-72 4v213q22 0 61 -4t53 -4q197 0 197 98q0 40 -43 69t-121 29q-2 0 -21 -4t-28 -4l98 270h205z " />
<glyph unicode="&#xdf;" horiz-adv-x="1679" d="M16 8v1925q0 307 195.5 477t517.5 170q216 0 375 -72.5t244.5 -210t85.5 -323.5q0 -191 -98.5 -341.5t-270.5 -223.5v-8q151 -37 257.5 -128t162 -228t55.5 -308q0 -224 -84 -398.5t-238 -269t-350 -94.5q-80 0 -237 33v320q98 -33 180 -33q178 0 285.5 124t107.5 326 q0 133 -50.5 246t-170 183.5t-311.5 70.5h-17v303l17 -8q207 0 316.5 103t109.5 290q0 166 -103.5 280t-257.5 114q-385 0 -385 -426v-1893h-336z" />
<glyph unicode="&#xe0;" horiz-adv-x="1597" d="M1475 311v-205q-126 -79 -187 -105t-133 -26q-219 0 -254 172q-222 -172 -450 -172q-180 0 -295 120t-115 290q0 155 79 255t192.5 154.5t293.5 114.5l295 107v90q0 158 -73 226.5t-230 68.5q-298 0 -532 -271v353q201 237 565 237q268 0 437 -140t169 -417v-860 q0 -48 14 -65t52 -17q70 0 172 90zM901 344v492q-180 -65 -283.5 -112t-172 -117t-68.5 -165q0 -98 67 -163.5t170 -65.5q156 0 287 131zM639 2449l254 -548h-213l-418 548h377z" />
<glyph unicode="&#xe1;" horiz-adv-x="1597" d="M1475 311v-205q-126 -79 -187 -105t-133 -26q-219 0 -254 172q-222 -172 -450 -172q-180 0 -295 120t-115 290q0 155 79 255t192.5 154.5t293.5 114.5l295 107v90q0 158 -73 226.5t-230 68.5q-298 0 -532 -271v353q201 237 565 237q268 0 437 -140t169 -417v-860 q0 -48 14 -65t52 -17q70 0 172 90zM901 344v492q-180 -65 -283.5 -112t-172 -117t-68.5 -165q0 -98 67 -163.5t170 -65.5q156 0 287 131zM778 2449h377l-418 -548h-205z" />
<glyph unicode="&#xe2;" horiz-adv-x="1597" d="M1475 311v-205q-126 -79 -187 -105t-133 -26q-219 0 -254 172q-222 -172 -450 -172q-180 0 -295 120t-115 290q0 155 79 255t192.5 154.5t293.5 114.5l295 107v90q0 158 -73 226.5t-230 68.5q-298 0 -532 -271v353q201 237 565 237q268 0 437 -140t169 -417v-860 q0 -48 14 -65t52 -17q70 0 172 90zM901 344v492q-180 -65 -283.5 -112t-172 -117t-68.5 -165q0 -98 67 -163.5t170 -65.5q156 0 287 131zM827 2458l353 -557h-197l-336 319l-303 -319h-197l336 557h344z" />
<glyph unicode="&#xe3;" horiz-adv-x="1597" d="M1475 311v-205q-126 -79 -187 -105t-133 -26q-219 0 -254 172q-222 -172 -450 -172q-180 0 -295 120t-115 290q0 155 79 255t192.5 154.5t293.5 114.5l295 107v90q0 158 -73 226.5t-230 68.5q-298 0 -532 -271v353q201 237 565 237q268 0 437 -140t169 -417v-860 q0 -48 14 -65t52 -17q70 0 172 90zM901 344v492q-180 -65 -283.5 -112t-172 -117t-68.5 -165q0 -98 67 -163.5t170 -65.5q156 0 287 131zM1065 2408h147q0 -193 -86 -317.5t-217 -124.5q-99 0 -264.5 65.5t-243.5 65.5q-118 0 -131 -131h-155q39 434 286 434 q104 0 296.5 -69.5t236.5 -69.5q119 0 131 147z" />
<glyph unicode="&#xe4;" horiz-adv-x="1597" d="M1475 311v-205q-126 -79 -187 -105t-133 -26q-219 0 -254 172q-222 -172 -450 -172q-180 0 -295 120t-115 290q0 155 79 255t192.5 154.5t293.5 114.5l295 107v90q0 158 -73 226.5t-230 68.5q-298 0 -532 -271v353q201 237 565 237q268 0 437 -140t169 -417v-860 q0 -48 14 -65t52 -17q70 0 172 90zM901 344v492q-180 -65 -283.5 -112t-172 -117t-68.5 -165q0 -98 67 -163.5t170 -65.5q156 0 287 131zM319 2351q70 0 117 -49.5t47 -122.5q0 -74 -48 -127t-116 -53q-72 0 -122 53.5t-50 126.5q0 72 49 122t123 50zM1008 2351 q74 0 123 -49t49 -123q0 -75 -50 -127.5t-122 -52.5t-122 52.5t-50 127.5q0 74 49 123t123 49z" />
<glyph unicode="&#xe5;" horiz-adv-x="1597" d="M1475 311v-205q-126 -79 -187 -105t-133 -26q-219 0 -254 172q-222 -172 -450 -172q-180 0 -295 120t-115 290q0 155 79 255t192.5 154.5t293.5 114.5l295 107v90q0 158 -73 226.5t-230 68.5q-298 0 -532 -271v353q201 237 565 237q268 0 437 -140t169 -417v-860 q0 -48 14 -65t52 -17q70 0 172 90zM901 344v492q-180 -65 -283.5 -112t-172 -117t-68.5 -165q0 -98 67 -163.5t170 -65.5q156 0 287 131zM664 2580q140 0 242 -101t102 -243q0 -141 -101.5 -242.5t-242.5 -101.5q-143 0 -244 101t-101 243q0 143 101.5 243.5t243.5 100.5z M664 2441q-82 0 -143.5 -60.5t-61.5 -144.5q0 -78 63 -141t142 -63q83 0 143.5 61.5t60.5 142.5q0 87 -59 146t-145 59z" />
<glyph unicode="&#xe6;" horiz-adv-x="2359" d="M2236 483v-336q-258 -172 -557 -172q-182 0 -337.5 68.5t-235.5 185.5q-332 -254 -639 -254q-192 0 -317 119t-125 307q0 156 90.5 262t270.5 183t491 162v57q0 352 -271 352q-303 0 -540 -287v402q96 83 237.5 135.5t302.5 52.5q317 0 500 -221q101 101 232 161t259 60 q182 0 328.5 -93t228.5 -265t82 -395v-58h-1032q0 -305 151 -472t374 -167q235 0 507 213zM1245 1139h656q-25 278 -320 278q-229 0 -336 -278zM877 303v541q-269 -98 -388.5 -178t-119.5 -191q0 -114 64 -192t157 -78q72 0 125 17.5t162 80.5z" />
<glyph unicode="&#xe7;" horiz-adv-x="1524" d="M1384 401v-335q-207 -91 -532 -91l-16 -49q204 -64 204 -245q0 -161 -116.5 -244.5t-309.5 -83.5h-147v205h90q90 0 155.5 28t65.5 70q0 40 -47 73t-125 33q-8 0 -23 -4t-18 -4l82 254q-277 62 -445.5 282t-168.5 529q0 272 101 476.5t288 314.5t438 110q140 0 245.5 -30 t237.5 -93v-352q-235 164 -458 164q-149 0 -265 -71t-179.5 -200.5t-63.5 -293.5q0 -261 152.5 -409t412.5 -148q215 0 442 114z" />
<glyph unicode="&#xe8;" horiz-adv-x="1679" d="M1524 492v-320q-163 -104 -316 -150.5t-356 -46.5q-251 0 -435.5 122.5t-280 328t-95.5 442.5q0 250 98 444t276 301t404 107q345 0 541 -236.5t196 -688.5h-1179q75 -500 557 -500q274 0 590 197zM385 1016h844q-12 191 -118.5 300t-283.5 109q-378 0 -442 -409z M754 2449l254 -548h-205l-418 548h369z" />
<glyph unicode="&#xe9;" horiz-adv-x="1679" d="M1524 492v-320q-163 -104 -316 -150.5t-356 -46.5q-251 0 -435.5 122.5t-280 328t-95.5 442.5q0 250 98 444t276 301t404 107q345 0 541 -236.5t196 -688.5h-1179q75 -500 557 -500q274 0 590 197zM385 1016h844q-12 191 -118.5 300t-283.5 109q-378 0 -442 -409z M819 2449h377l-418 -548h-205z" />
<glyph unicode="&#xea;" horiz-adv-x="1679" d="M1524 492v-320q-163 -104 -316 -150.5t-356 -46.5q-251 0 -435.5 122.5t-280 328t-95.5 442.5q0 250 98 444t276 301t404 107q345 0 541 -236.5t196 -688.5h-1179q75 -500 557 -500q274 0 590 197zM385 1016h844q-12 191 -118.5 300t-283.5 109q-378 0 -442 -409z M950 2458l353 -557h-205l-328 319l-303 -319h-205l344 557h344z" />
<glyph unicode="&#xeb;" horiz-adv-x="1679" d="M1524 492v-320q-163 -104 -316 -150.5t-356 -46.5q-251 0 -435.5 122.5t-280 328t-95.5 442.5q0 250 98 444t276 301t404 107q345 0 541 -236.5t196 -688.5h-1179q75 -500 557 -500q274 0 590 197zM385 1016h844q-12 191 -118.5 300t-283.5 109q-378 0 -442 -409z M434 2351q74 0 123 -49t49 -123q0 -75 -50 -127.5t-122 -52.5t-122 53.5t-50 126.5q0 72 49 122t123 50zM1130 2351q75 0 124 -49t49 -123q0 -75 -50 -127.5t-123 -52.5q-72 0 -122 53.5t-50 126.5q0 72 49 122t123 50z" />
<glyph unicode="&#xec;" horiz-adv-x="762" d="M582 1679v-1671h-336v1671h336zM393 2449l254 -548h-213l-418 548h377z" />
<glyph unicode="&#xed;" horiz-adv-x="762" d="M385 1679v-1671h-336v1671h336zM254 2449h377l-418 -548h-205z" />
<glyph unicode="&#xee;" horiz-adv-x="1204" d="M705 1679v-1671h-336v1671h336zM705 2458l352 -557h-205l-328 319l-303 -319h-196l335 557h345z" />
<glyph unicode="&#xef;" horiz-adv-x="1204" d="M705 1679v-1671h-336v1671h336zM188 2351q76 0 124 -49t48 -123q0 -75 -49.5 -127.5t-122.5 -52.5q-67 0 -119.5 54t-52.5 126q0 71 51.5 121.5t120.5 50.5zM885 2351q74 0 123 -49t49 -123q0 -75 -50 -127.5t-122 -52.5t-122 52.5t-50 127.5q0 74 49 123t123 49z" />
<glyph unicode="&#xf0;" horiz-adv-x="1720" d="M1589 1679v-254h-344q103 -95 141.5 -174t38.5 -186q0 -104 -48 -212t-107 -173q-73 -78 -173 -112t-244 -58t-203.5 -50t-59.5 -91q0 -47 55 -83.5t153 -65t300 -73.5q483 -98 483 -466q0 -162 -92 -283t-271 -185.5t-423 -64.5q-338 0 -554 144t-216 364 q0 125 42.5 215t133.5 152t241 100q-163 93 -163 205q0 84 72.5 148.5t189.5 88.5v8q-197 93 -279 222q-90 129 -90 311q0 177 88 306.5t252 198t389 68.5h688zM1130 1098q0 124 -96.5 213.5t-230.5 89.5t-231 -94t-97 -217q0 -135 92.5 -219.5t243.5 -84.5q136 0 227.5 89 t91.5 223zM1262 -344q0 142 -172.5 206t-368.5 64q-172 0 -278.5 -71t-106.5 -183q0 -123 120.5 -188.5t346.5 -65.5q214 0 336.5 63.5t122.5 174.5zM1483 2408q0 -116 -78 -210t-214 -146.5t-306 -52.5t-306 52.5t-214 146.5t-78 210h262q0 -116 92 -185t244 -69 q154 0 245 69t91 185h262z" />
<glyph unicode="&#xf1;" horiz-adv-x="1565" d="M360 1679v-213h9q95 119 226.5 186.5t272.5 67.5q161 0 289 -76t202.5 -229t74.5 -375v-1032h-328v1041q0 185 -87 293t-241 108q-111 0 -205.5 -54t-212.5 -184v-1204h-335v1671h335zM1139 2408h139q0 -194 -82.5 -318t-212.5 -124q-68 0 -126.5 16.5t-135.5 48 t-134.5 49t-119.5 17.5q-108 0 -131 -131h-148q14 207 91 320.5t204 113.5q101 0 290.5 -69.5t225.5 -69.5q114 0 140 147z" />
<glyph unicode="&#xf2;" d="M918 1720q260 0 468.5 -110t324.5 -307t116 -443q0 -262 -114.5 -463.5t-321.5 -311.5t-473 -110q-253 0 -454 113t-312 316t-111 456q0 236 114.5 434.5t317 312t445.5 113.5zM918 1417q-154 0 -278 -72.5t-193.5 -200t-69.5 -284.5q0 -263 151 -426.5t390 -163.5 q175 0 302.5 71t195 203t67.5 316q0 157 -73 284.5t-202 200t-290 72.5zM909 2449l246 -548h-197l-417 548h368z" />
<glyph unicode="&#xf3;" d="M918 1720q260 0 468.5 -110t324.5 -307t116 -443q0 -262 -114.5 -463.5t-321.5 -311.5t-473 -110q-253 0 -454 113t-312 316t-111 456q0 236 114.5 434.5t317 312t445.5 113.5zM918 1417q-154 0 -278 -72.5t-193.5 -200t-69.5 -284.5q0 -263 151 -426.5t390 -163.5 q175 0 302.5 71t195 203t67.5 316q0 157 -73 284.5t-202 200t-290 72.5zM983 2449h369l-418 -548h-205z" />
<glyph unicode="&#xf4;" d="M918 1720q260 0 468.5 -110t324.5 -307t116 -443q0 -262 -114.5 -463.5t-321.5 -311.5t-473 -110q-253 0 -454 113t-312 316t-111 456q0 236 114.5 434.5t317 312t445.5 113.5zM918 1417q-154 0 -278 -72.5t-193.5 -200t-69.5 -284.5q0 -263 151 -426.5t390 -163.5 q175 0 302.5 71t195 203t67.5 316q0 157 -73 284.5t-202 200t-290 72.5zM1106 2458l352 -557h-213l-319 319l-312 -319h-196l336 557h352z" />
<glyph unicode="&#xf5;" d="M918 1720q260 0 468.5 -110t324.5 -307t116 -443q0 -262 -114.5 -463.5t-321.5 -311.5t-473 -110q-253 0 -454 113t-312 316t-111 456q0 236 114.5 434.5t317 312t445.5 113.5zM918 1417q-154 0 -278 -72.5t-193.5 -200t-69.5 -284.5q0 -263 151 -426.5t390 -163.5 q175 0 302.5 71t195 203t67.5 316q0 157 -73 284.5t-202 200t-290 72.5zM1335 2408h148q0 -194 -82.5 -318t-212.5 -124q-102 0 -269.5 65.5t-254.5 65.5q-100 0 -123 -131h-148q6 203 82 318.5t205 115.5q105 0 294.5 -69.5t229.5 -69.5q107 0 131 147z" />
<glyph unicode="&#xf6;" d="M918 1720q260 0 468.5 -110t324.5 -307t116 -443q0 -262 -114.5 -463.5t-321.5 -311.5t-473 -110q-253 0 -454 113t-312 316t-111 456q0 236 114.5 434.5t317 312t445.5 113.5zM918 1417q-154 0 -278 -72.5t-193.5 -200t-69.5 -284.5q0 -263 151 -426.5t390 -163.5 q175 0 302.5 71t195 203t67.5 316q0 157 -73 284.5t-202 200t-290 72.5zM590 2351q74 0 123 -49t49 -123q0 -75 -50 -127.5t-122 -52.5t-126 54t-54 126t52.5 122t127.5 50zM1286 2351q74 0 123 -49t49 -123q0 -75 -50 -127.5t-122 -52.5t-126 54t-54 126t52.5 122t127.5 50 z" />
<glyph unicode="&#xf7;" horiz-adv-x="2998" d="M2884 483v-336q-160 -86 -284 -129t-323 -43q-423 0 -622 336q-262 -336 -729 -336q-240 0 -446.5 113t-326.5 305t-120 418q0 261 114.5 469.5t324 324t478.5 115.5q439 0 705 -352q99 172 253 262t345 90q121 0 233.5 -48.5t199.5 -143t138 -237.5t51 -324v-58h-1048 q0 -7 -4 -32t-4 -33q0 -252 153 -413t371 -161q256 0 541 213zM1860 1139h688q-39 278 -312 278q-288 0 -376 -278zM942 1417q-163 0 -292.5 -78.5t-201 -215.5t-71.5 -304q0 -144 74 -271.5t200.5 -202.5t274.5 -75q164 0 291.5 75t196.5 207.5t69 299.5q0 150 -72 279.5 t-196.5 207.5t-272.5 78z" />
<glyph unicode="&#xf8;" d="M500 467l737 860q-121 90 -319 90q-154 0 -278 -72.5t-193.5 -200t-69.5 -284.5q0 -106 32 -214t91 -179zM418 115l-205 -246l-131 115l213 237q-254 254 -254 639q0 236 114.5 434.5t317 312t445.5 113.5q303 0 524 -147l180 196l115 -114l-164 -180q254 -254 254 -615 q0 -262 -114.5 -463.5t-321.5 -311.5t-473 -110q-276 0 -500 140zM1368 1221l-745 -869q137 -82 295 -82q175 0 302.5 71t195 203t67.5 316q0 211 -115 361z" />
<glyph unicode="&#xf9;" horiz-adv-x="1565" d="M1425 8h-327v213q-105 -115 -240.5 -180.5t-259.5 -65.5q-256 0 -414.5 179t-158.5 493v1032h327v-1056q0 -178 90 -277.5t254 -99.5q226 0 402 237v1196h327v-1671zM713 2449l245 -548h-204l-418 548h377z" />
<glyph unicode="&#xfa;" horiz-adv-x="1565" d="M1425 8h-327v213q-105 -115 -240.5 -180.5t-259.5 -65.5q-256 0 -414.5 179t-158.5 493v1032h327v-1056q0 -178 90 -277.5t254 -99.5q226 0 402 237v1196h327v-1671zM778 2449h377l-418 -548h-213z" />
<glyph unicode="&#xfb;" horiz-adv-x="1565" d="M1425 8h-327v213q-105 -115 -240.5 -180.5t-259.5 -65.5q-256 0 -414.5 179t-158.5 493v1032h327v-1056q0 -178 90 -277.5t254 -99.5q226 0 402 237v1196h327v-1671zM901 2458l352 -557h-204l-320 319l-319 -319h-189l336 557h344z" />
<glyph unicode="&#xfc;" horiz-adv-x="1565" d="M1425 8h-327v213q-105 -115 -240.5 -180.5t-259.5 -65.5q-256 0 -414.5 179t-158.5 493v1032h327v-1056q0 -178 90 -277.5t254 -99.5q226 0 402 237v1196h327v-1671zM393 2351q69 0 120.5 -49.5t51.5 -122.5t-52.5 -126.5t-119.5 -53.5q-72 0 -126 54t-54 126t52.5 122 t127.5 50zM1081 2351q76 0 124 -49t48 -123q0 -75 -49.5 -127.5t-122.5 -52.5q-72 0 -126 54t-54 126t52.5 122t127.5 50z" />
<glyph unicode="&#xfd;" horiz-adv-x="565" d="M385 1679v-1671h-336v1671h336zM410 2187q0 -78 -58 -137t-131 -59q-85 0 -145 58.5t-60 137.5q0 85 59 145t146 60q75 0 132 -60t57 -145z" />
<glyph unicode="&#xfe;" horiz-adv-x="1278" d="M1065 1573v-328q-247 180 -483 180q-99 0 -160.5 -43.5t-61.5 -111.5q0 -54 93 -129.5t317 -206.5q211 -136 294 -237t83 -230q0 -145 -72 -256.5t-199.5 -173.5t-285.5 -62q-282 0 -582 156v352q332 -221 557 -221q103 6 174.5 57.5t71.5 139.5q0 74 -76 126.5 t-287 175.5t-317 235.5t-106 265.5q0 214 148 336t400 122q234 0 492 -147zM696 -16l-16 -99q88 -18 142.5 -80.5t54.5 -148.5q0 -172 -121.5 -258t-321.5 -86q-20 0 -67 4t-72 4v213q21 0 60 -4t55 -4q196 0 196 98q0 40 -43 69t-121 29q-3 0 -21 -4t-28 -4l99 271h204z " />
<glyph unicode="&#xff;" horiz-adv-x="1802" d="M1671 1679l-893 -1908l-295 -623h-368l573 1221l-647 1310h369l458 -942l435 942h368zM508 2351q74 0 123 -49t49 -123q0 -75 -50 -127.5t-122 -52.5t-122 53.5t-50 126.5q0 72 49 122t123 50zM1204 2351q76 0 124 -49t48 -123q0 -75 -49.5 -127.5t-122.5 -52.5 q-72 0 -122 53.5t-50 126.5q0 72 49 122t123 50z" />
<glyph unicode="&#x152;" horiz-adv-x="1843" />
<glyph unicode="&#x153;" horiz-adv-x="1597" d="M1368 2408v-417q-274 262 -598 262q-175 0 -288 -80.5t-113 -214.5q0 -161 113.5 -249.5t405.5 -257t439.5 -340.5t147.5 -447q0 -197 -94.5 -354.5t-260 -246t-366.5 -88.5q-407 0 -705 238v459q279 -369 672 -369q192 0 300.5 100.5t108.5 219.5q0 176 -131 291.5 t-407 283.5t-417.5 320t-141.5 383q0 207 94.5 360.5t269.5 236t406 82.5q296 0 565 -172zM860 -25l-16 -98q86 -18 141 -81t55 -148q0 -172 -121 -258t-321 -86q-20 0 -67 4t-72 4v213q22 0 61 -4t53 -4q197 0 197 98q0 40 -43 69t-121 29q-2 0 -21 -4t-28 -4l98 270h205z " />
<glyph unicode="&#x160;" horiz-adv-x="1843" />
<glyph unicode="&#x161;" horiz-adv-x="524" d="M401 2556v-2548h-368v2548h368zM393 2957q0 -79 -57.5 -137.5t-130.5 -58.5q-85 0 -145 58.5t-60 137.5q0 85 59 145t146 60q75 0 131.5 -59.5t56.5 -145.5z" />
<glyph unicode="&#x178;" horiz-adv-x="1720" d="M1589 1679v-254h-344q103 -95 141.5 -174t38.5 -186q0 -104 -48 -212t-107 -173q-73 -78 -173 -112t-244 -58t-203.5 -50t-59.5 -91q0 -47 55 -83.5t153 -65t300 -73.5q483 -98 483 -466q0 -162 -92 -283t-271 -185.5t-423 -64.5q-338 0 -554 144t-216 364 q0 125 42.5 215t133.5 152t241 100q-163 93 -163 205q0 84 72.5 148.5t189.5 88.5v8q-197 93 -279 222q-90 129 -90 311q0 177 88 306.5t252 198t389 68.5h688zM1130 1098q0 124 -96.5 213.5t-230.5 89.5t-231 -94t-97 -217q0 -135 92.5 -219.5t243.5 -84.5q136 0 227.5 89 t91.5 223zM1262 -344q0 142 -172.5 206t-368.5 64q-172 0 -278.5 -71t-106.5 -183q0 -123 120.5 -188.5t346.5 -65.5q214 0 336.5 63.5t122.5 174.5zM1483 2408q0 -116 -78 -210t-214 -146.5t-306 -52.5t-306 52.5t-214 146.5t-78 210h262q0 -116 92 -185t244 -69 q154 0 245 69t91 185h262z" />
<glyph unicode="&#x192;" horiz-adv-x="1401" />
<glyph unicode="&#x2dc;" horiz-adv-x="1401" />
<glyph unicode="&#x2013;" horiz-adv-x="1843" />
<glyph unicode="&#x2014;" horiz-adv-x="1843" />
<glyph unicode="&#x2018;" horiz-adv-x="3080" d="M246 418q93 0 161 -65t68 -156q0 -92 -68 -157t-161 -65q-92 0 -156.5 65.5t-64.5 156.5q0 90 64.5 155.5t156.5 65.5zM1491 418q93 0 161 -65t68 -156q0 -92 -68 -157t-161 -65q-92 0 -156.5 65.5t-64.5 156.5q0 90 64.5 155.5t156.5 65.5zM2736 418q93 0 161.5 -65.5 t68.5 -155.5q0 -91 -68.5 -156.5t-161.5 -65.5q-92 0 -156.5 65.5t-64.5 156.5q0 90 64.5 155.5t156.5 65.5z" />
<glyph unicode="&#x2019;" horiz-adv-x="3834" d="M3129 836q-117 0 -206 -86.5t-89 -208.5t89 -208.5t206 -86.5q123 0 209 86t86 209t-86 209t-209 86zM3129 1114q153 0 285.5 -78t210.5 -210.5t78 -284.5q0 -153 -78 -285.5t-210.5 -210.5t-285.5 -78q-151 0 -281.5 77.5t-207 210t-76.5 286.5q0 152 76.5 285 t207 210.5t281.5 77.5zM2154 2580l-1212 -1900l-459 -713h-278l1220 1909l459 704h270zM1778 1114q149 0 279 -78t208 -210.5t78 -284.5q0 -153 -78 -286t-208 -210.5t-279 -77.5q-153 0 -285.5 78t-210.5 210.5t-78 285.5q0 152 78 284.5t210.5 210.5t285.5 78zM1778 836 q-123 0 -209 -86t-86 -209t86 -209t209 -86t209 86t86 209t-86 209t-209 86zM598 2580q149 0 279 -78t208 -210.5t78 -284.5q0 -233 -168.5 -399t-396.5 -166q-152 0 -285 76.5t-210.5 207t-77.5 281.5q0 152 78 284.5t210.5 210.5t284.5 78zM598 2310q-122 0 -208.5 -89.5 t-86.5 -213.5q0 -122 85.5 -204.5t209.5 -82.5t209.5 82.5t85.5 204.5q0 124 -86.5 213.5t-208.5 89.5z" />
<glyph unicode="&#x201a;" horiz-adv-x="1843" />
<glyph unicode="&#x201c;" horiz-adv-x="2998" d="M516 1196v1262h-475v221h1204v-221h-483v-1262h-246zM1417 1196v1483h369l368 -1188l361 1188h360v-1483h-221v1245h-8l-377 -1245h-221l-393 1262h-8v-1262h-230z" />
<glyph unicode="&#x201d;" horiz-adv-x="1401" d="M893 1737l-82 499v443h328v-443l-90 -499h-156zM254 1737l-82 499v443h328v-443l-90 -499h-156z" />
<glyph unicode="&#x201e;" horiz-adv-x="1843" />
<glyph unicode="&#x2020;" horiz-adv-x="1843" />
<glyph unicode="&#x2021;" horiz-adv-x="1843" />
<glyph unicode="&#x2026;" horiz-adv-x="1843" />
<glyph unicode="&#x2030;" horiz-adv-x="1843" />
<glyph unicode="&#x2039;" horiz-adv-x="2277" d="M213 1171v312l1769 753v-327l-1409 -582l1409 -582v-327z" />
<glyph unicode="&#x203a;" horiz-adv-x="565" d="M385 1679v-1671h-336v1671h336zM410 2187q0 -78 -58 -137t-131 -59q-85 0 -145 58.5t-60 137.5q0 85 59 145t146 60q75 0 132 -60t57 -145z" />
<glyph unicode="&#x2122;" horiz-adv-x="1843" />
<glyph unicode="&#x2219;" horiz-adv-x="606" d="M254 1516q93 0 161 -65t68 -157q0 -60 -31.5 -113t-84.5 -84.5t-113 -31.5q-91 0 -156 68.5t-65 160.5q0 91 64.5 156.5t156.5 65.5z" />
<glyph unicode="&#xe000;" horiz-adv-x="1680" d="M0 1680h1680v-1680h-1680v1680z" />
</font>
</defs>
</svg>
